<svg width="204" height="444" viewBox="0 0 204 444" fill="none" xmlns="http://www.w3.org/2000/svg">
<circle cx="2" cy="2" r="2" fill="#FF68F9"/>
<circle cx="42" cy="2" r="2" fill="#FF68F9"/>
<circle cx="82" cy="2" r="2" fill="#FF68F9"/>
<circle cx="122" cy="2" r="2" fill="#FF68F9"/>
<circle cx="162" cy="2" r="2" fill="#FF68F9"/>
<circle cx="202" cy="2" r="2" fill="#FF68F9"/>
<circle cx="2" cy="42" r="2" fill="#FF68F9"/>
<circle cx="42" cy="42" r="2" fill="#FF68F9"/>
<circle cx="82" cy="42" r="2" fill="#FF68F9"/>
<circle cx="122" cy="42" r="2" fill="#FF68F9"/>
<circle cx="162" cy="42" r="2" fill="#FF68F9"/>
<circle cx="202" cy="42" r="2" fill="#FF68F9"/>
<circle cx="2" cy="82" r="2" fill="#FF68F9"/>
<circle cx="42" cy="82" r="2" fill="#FF68F9"/>
<circle cx="82" cy="82" r="2" fill="#FF68F9"/>
<circle cx="122" cy="82" r="2" fill="#FF68F9"/>
<circle cx="162" cy="82" r="2" fill="#FF68F9"/>
<circle cx="202" cy="82" r="2" fill="#FF68F9"/>
<circle cx="2" cy="122" r="2" fill="#FF68F9"/>
<circle cx="42" cy="122" r="2" fill="#FF68F9"/>
<circle cx="82" cy="122" r="2" fill="#FF68F9"/>
<circle cx="122" cy="122" r="2" fill="#FF68F9"/>
<circle cx="162" cy="122" r="2" fill="#FF68F9"/>
<circle cx="202" cy="122" r="2" fill="#FF68F9"/>
<circle cx="2" cy="162" r="2" fill="#FF68F9"/>
<circle cx="42" cy="162" r="2" fill="#FF68F9"/>
<circle cx="82" cy="162" r="2" fill="#FF68F9"/>
<circle cx="122" cy="162" r="2" fill="#FF68F9"/>
<circle cx="162" cy="162" r="2" fill="#FF68F9"/>
<circle cx="202" cy="162" r="2" fill="#FF68F9"/>
<circle cx="2" cy="202" r="2" fill="#FF68F9"/>
<circle cx="42" cy="202" r="2" fill="#FF68F9"/>
<circle cx="82" cy="202" r="2" fill="#FF68F9"/>
<circle cx="122" cy="202" r="2" fill="#FF68F9"/>
<circle cx="162" cy="202" r="2" fill="#FF68F9"/>
<circle cx="202" cy="202" r="2" fill="#FF68F9"/>
<circle cx="2" cy="242" r="2" fill="#FF68F9"/>
<circle cx="42" cy="242" r="2" fill="#FF68F9"/>
<circle cx="82" cy="242" r="2" fill="#FF68F9"/>
<circle cx="122" cy="242" r="2" fill="#FF68F9"/>
<circle cx="162" cy="242" r="2" fill="#FF68F9"/>
<circle cx="202" cy="242" r="2" fill="#FF68F9"/>
<circle cx="2" cy="282" r="2" fill="#FF68F9"/>
<circle cx="42" cy="282" r="2" fill="#FF68F9"/>
<circle cx="82" cy="282" r="2" fill="#FF68F9"/>
<circle cx="122" cy="282" r="2" fill="#FF68F9"/>
<circle cx="162" cy="282" r="2" fill="#FF68F9"/>
<circle cx="202" cy="282" r="2" fill="#FF68F9"/>
<circle cx="2" cy="322" r="2" fill="#FF68F9"/>
<circle cx="42" cy="322" r="2" fill="#FF68F9"/>
<circle cx="82" cy="322" r="2" fill="#FF68F9"/>
<circle cx="122" cy="322" r="2" fill="#FF68F9"/>
<circle cx="162" cy="322" r="2" fill="#FF68F9"/>
<circle cx="202" cy="322" r="2" fill="#FF68F9"/>
<circle cx="2" cy="362" r="2" fill="#FF68F9"/>
<circle cx="42" cy="362" r="2" fill="#FF68F9"/>
<circle cx="82" cy="362" r="2" fill="#FF68F9"/>
<circle cx="122" cy="362" r="2" fill="#FF68F9"/>
<circle cx="162" cy="362" r="2" fill="#FF68F9"/>
<circle cx="202" cy="362" r="2" fill="#FF68F9"/>
<circle cx="2" cy="402" r="2" fill="#FF68F9"/>
<circle cx="42" cy="402" r="2" fill="#FF68F9"/>
<circle cx="82" cy="402" r="2" fill="#FF68F9"/>
<circle cx="122" cy="402" r="2" fill="#FF68F9"/>
<circle cx="162" cy="402" r="2" fill="#FF68F9"/>
<circle cx="202" cy="402" r="2" fill="#FF68F9"/>
<circle cx="2" cy="442" r="2" fill="#FF68F9"/>
<circle cx="42" cy="442" r="2" fill="#FF68F9"/>
<circle cx="82" cy="442" r="2" fill="#FF68F9"/>
<circle cx="122" cy="442" r="2" fill="#FF68F9"/>
<circle cx="162" cy="442" r="2" fill="#FF68F9"/>
<circle cx="202" cy="442" r="2" fill="#FF68F9"/>
</svg>
